<svg id="visual" viewBox="0 0 900 600" width="900" height="600" xmlns="http://www.w3.org/2000/svg" xmlns:xlink="http://www.w3.org/1999/xlink" version="1.1"><rect width="900" height="600" fill="#001829"></rect><g><g transform="translate(619 24)"><path d="M0 -135.3L95.7 -95.7L135.3 0L95.7 95.7L0 135.3L-95.7 95.7L-135.3 0L-95.7 -95.7Z" fill="#297EA6"></path></g><g transform="translate(895 162)"><path d="M0 -109L77.1 -77.1L109 0L77.1 77.1L0 109L-77.1 77.1L-109 0L-77.1 -77.1Z" fill="#297EA6"></path></g><g transform="translate(318 125)"><path d="M0 -89L62.9 -62.9L89 0L62.9 62.9L0 89L-62.9 62.9L-89 0L-62.9 -62.9Z" fill="#297EA6"></path></g><g transform="translate(616 388)"><path d="M0 -95L67.2 -67.2L95 0L67.2 67.2L0 95L-67.2 67.2L-95 0L-67.2 -67.2Z" fill="#297EA6"></path></g><g transform="translate(227 477)"><path d="M0 -117L82.7 -82.7L117 0L82.7 82.7L0 117L-82.7 82.7L-117 0L-82.7 -82.7Z" fill="#297EA6"></path></g><g transform="translate(54 21)"><path d="M0 -96L67.9 -67.9L96 0L67.9 67.9L0 96L-67.9 67.9L-96 0L-67.9 -67.9Z" fill="#297EA6"></path></g><g transform="translate(881 452)"><path d="M0 -93L65.8 -65.8L93 0L65.8 65.8L0 93L-65.8 65.8L-93 0L-65.8 -65.8Z" fill="#297EA6"></path></g></g></svg>