<svg id="visual" viewBox="0 0 900 600" width="900" height="600" xmlns="http://www.w3.org/2000/svg" xmlns:xlink="http://www.w3.org/1999/xlink" version="1.1"><rect x="0" y="0" width="900" height="600" fill="#002233"></rect><path d="M0 505L21.5 490.7C43 476.3 86 447.7 128.8 445.3C171.7 443 214.3 467 257.2 462.2C300 457.3 343 423.7 385.8 409.5C428.7 395.3 471.3 400.7 514.2 417.3C557 434 600 462 642.8 478.7C685.7 495.3 728.3 500.7 771.2 494.7C814 488.7 857 471.3 878.5 462.7L900 454L900 601L878.5 601C857 601 814 601 771.2 601C728.3 601 685.7 601 642.8 601C600 601 557 601 514.2 601C471.3 601 428.7 601 385.8 601C343 601 300 601 257.2 601C214.3 601 171.7 601 128.8 601C86 601 43 601 21.5 601L0 601Z" fill="#0066FF" stroke-linecap="round" stroke-linejoin="miter"></path></svg>