<svg id="visual" viewBox="0 0 900 600" width="900" height="600" xmlns="http://www.w3.org/2000/svg" xmlns:xlink="http://www.w3.org/1999/xlink" version="1.1"><rect x="0" y="0" width="900" height="600" fill="#002233"></rect><path d="M326 0L304.7 14.3C283.3 28.7 240.7 57.3 235.2 85.8C229.7 114.3 261.3 142.7 273.5 171.2C285.7 199.7 278.3 228.3 275.5 257C272.7 285.7 274.3 314.3 248.2 343C222 371.7 168 400.3 151.5 428.8C135 457.3 156 485.7 160.3 514.2C164.7 542.7 152.3 571.3 146.2 585.7L140 600L0 600L0 585.7C0 571.3 0 542.7 0 514.2C0 485.7 0 457.3 0 428.8C0 400.3 0 371.7 0 343C0 314.3 0 285.7 0 257C0 228.3 0 199.7 0 171.2C0 142.7 0 114.3 0 85.8C0 57.3 0 28.7 0 14.3L0 0Z" fill="#0066FF" stroke-linecap="round" stroke-linejoin="miter"></path></svg>